<svg width="179" height="36" viewBox="0 0 179 36" fill="none" xmlns="http://www.w3.org/2000/svg">
<g clip-path="url(#clip0_331_1376)">
<path d="M13.5838 17.7559C15.0902 16.9629 16.0416 15.5355 16.0416 13.6851C16.0416 10.8039 13.6631 8.87421 9.0383 8.87421H0V27.3777H9.56678C14.4295 27.3777 16.9666 25.5274 16.9666 22.3289C16.9666 20.0027 15.6452 18.4167 13.5838 17.7559ZM8.50972 12.0991C10.5975 12.0991 11.7339 12.8128 11.7339 14.2667C11.7339 15.7205 10.5975 16.4606 8.50972 16.4606H4.25486V12.0991H8.50972ZM9.24967 24.1528H4.25486V19.5798H9.24967C11.4696 19.5798 12.6588 20.3199 12.6588 21.8795C12.6588 23.4655 11.4696 24.1528 9.24967 24.1528Z" fill="white"/>
<path d="M34.3731 20.3199C34.3731 15.7468 31.149 12.9449 26.9734 12.9449C22.6392 12.9449 19.3887 16.0112 19.3887 20.267C19.3887 24.4964 22.5864 27.5891 27.5019 27.5891C30.0654 27.5891 32.0475 26.7961 33.3688 25.2894L31.1754 22.9103C30.1975 23.8355 29.1141 24.2849 27.6076 24.2849C25.4405 24.2849 23.9342 23.2011 23.5378 21.4301H34.2938C34.3202 21.0864 34.3731 20.6371 34.3731 20.3199ZM26.9998 16.064C28.8497 16.064 30.1975 17.2271 30.4882 19.0246H23.4849C23.7756 17.2007 25.1234 16.064 26.9998 16.064Z" fill="white"/>
<path d="M46.2882 12.9449C44.359 12.9449 42.694 13.6057 41.5841 14.8217V13.1564H37.6464V27.3776H41.7691V20.3463C41.7691 17.7294 43.1962 16.5134 45.1782 16.5134C47.0018 16.5134 48.0588 17.5708 48.0588 19.8705V27.3776H52.1815V19.2361C52.1815 14.901 49.6446 12.9449 46.2882 12.9449Z" fill="white"/>
<path d="M70.5295 20.3199C70.5295 15.7468 67.3053 12.9449 63.1298 12.9449C58.7956 12.9449 55.545 16.0112 55.545 20.267C55.545 24.4964 58.7428 27.5891 63.6584 27.5891C66.2218 27.5891 68.2039 26.7961 69.5253 25.2894L67.3318 22.9103C66.3539 23.8355 65.2704 24.2849 63.7641 24.2849C61.597 24.2849 60.0906 23.2011 59.6942 21.4301H70.4503C70.4767 21.0864 70.5295 20.6371 70.5295 20.3199ZM63.1562 16.064C65.0062 16.064 66.3539 17.2271 66.6447 19.0246H59.6413C59.9321 17.2007 61.2798 16.064 63.1562 16.064Z" fill="white"/>
<path d="M13.5838 17.7559C15.0902 16.9629 16.0416 15.5355 16.0416 13.6851C16.0416 10.8039 13.6631 8.87421 9.0383 8.87421H0V27.3777H9.56678C14.4295 27.3777 16.9666 25.5274 16.9666 22.3289C16.9666 20.0027 15.6452 18.4167 13.5838 17.7559ZM8.50972 12.0991C10.5975 12.0991 11.7339 12.8128 11.7339 14.2667C11.7339 15.7205 10.5975 16.4606 8.50972 16.4606H4.25486V12.0991H8.50972ZM9.24967 24.1528H4.25486V19.5798H9.24967C11.4696 19.5798 12.6588 20.3199 12.6588 21.8795C12.6588 23.4655 11.4696 24.1528 9.24967 24.1528Z" fill="white"/>
<path d="M34.3731 20.3199C34.3731 15.7468 31.149 12.9449 26.9734 12.9449C22.6392 12.9449 19.3887 16.0112 19.3887 20.267C19.3887 24.4964 22.5864 27.5891 27.5019 27.5891C30.0654 27.5891 32.0475 26.7961 33.3688 25.2894L31.1754 22.9103C30.1975 23.8355 29.1141 24.2849 27.6076 24.2849C25.4405 24.2849 23.9342 23.2011 23.5378 21.4301H34.2938C34.3202 21.0864 34.3731 20.6371 34.3731 20.3199ZM26.9998 16.064C28.8497 16.064 30.1975 17.2271 30.4882 19.0246H23.4849C23.7756 17.2007 25.1234 16.064 26.9998 16.064Z" fill="white"/>
<path d="M46.2882 12.9449C44.359 12.9449 42.694 13.6057 41.5841 14.8217V13.1564H37.6464V27.3776H41.7691V20.3463C41.7691 17.7294 43.1962 16.5134 45.1782 16.5134C47.0018 16.5134 48.0588 17.5708 48.0588 19.8705V27.3776H52.1815V19.2361C52.1815 14.901 49.6446 12.9449 46.2882 12.9449Z" fill="white"/>
<path d="M70.5295 20.3199C70.5295 15.7468 67.3053 12.9449 63.1298 12.9449C58.7956 12.9449 55.545 16.0112 55.545 20.267C55.545 24.4964 58.7428 27.5891 63.6584 27.5891C66.2218 27.5891 68.2039 26.7961 69.5253 25.2894L67.3318 22.9103C66.3539 23.8355 65.2704 24.2849 63.7641 24.2849C61.597 24.2849 60.0906 23.2011 59.6942 21.4301H70.4503C70.4767 21.0864 70.5295 20.6371 70.5295 20.3199ZM63.1562 16.064C65.0062 16.064 66.3539 17.2271 66.6447 19.0246H59.6413C59.9321 17.2007 61.2798 16.064 63.1562 16.064Z" fill="white"/>
<path fill-rule="evenodd" clip-rule="evenodd" d="M134.887 15.6676C136.05 14.1609 137.793 13.4207 139.776 13.4207C143.872 13.4207 146.858 16.2756 146.858 20.5578C146.858 24.84 143.872 27.7213 139.776 27.7213C137.714 27.7213 135.918 26.9283 134.781 25.3423V27.5627H132.35V7.94899H134.887V15.6676ZM134.86 20.5578C134.86 23.5448 136.896 25.5009 139.565 25.5009C142.26 25.5009 144.295 23.5448 144.295 20.5578C144.295 17.5708 142.26 15.6412 139.565 15.6412C136.896 15.6412 134.86 17.5708 134.86 20.5578ZM153.878 9.16494C153.878 10.1165 153.166 10.8567 152.161 10.8567C151.183 10.8567 150.443 10.143 150.443 9.21781C150.443 8.29263 151.183 7.55249 152.161 7.55249C153.139 7.55249 153.878 8.2662 153.878 9.16494ZM153.43 27.5627H150.892V13.5529H153.43V27.5627ZM161.339 27.5627H158.802V7.94899H161.339V27.5627ZM172.447 13.4207C176.49 13.4207 179.371 16.3284 179.371 20.6371C179.371 20.8486 179.344 21.1658 179.318 21.4037H167.954C168.271 23.862 170.253 25.5009 173.028 25.5009C174.666 25.5009 176.041 24.9458 177.072 23.8091L178.472 25.448C177.204 26.9283 175.274 27.7213 172.949 27.7213C168.43 27.7213 165.417 24.7343 165.417 20.5578C165.417 16.4077 168.404 13.4207 172.447 13.4207ZM176.94 19.5798C176.675 17.2272 174.904 15.5619 172.447 15.5619C170.015 15.5619 168.219 17.2007 167.954 19.5798H176.94ZM93.8637 9.0592L93.8902 27.5627H91.3525L91.3261 14.0816L84.6402 25.3159H83.4245L76.7384 14.1609V27.5627H74.2013V9.0592H76.3683L84.0852 22.0645L91.6962 9.0592H93.8637Z" fill="url(#paint0_linear_331_1376)"/>
<path fill-rule="evenodd" clip-rule="evenodd" d="M106.821 12.2728C102.389 12.2728 98.7982 15.8655 98.7982 20.2972C98.7982 24.729 102.389 28.3217 106.821 28.3217H120.978C125.409 28.3217 129 24.729 129 20.2972C129 15.8655 125.409 12.2728 120.978 12.2728H106.821ZM106.821 14.1609H120.978C117.59 14.1609 114.843 16.9082 114.843 20.2972C114.843 23.6863 117.59 26.4336 120.978 26.4336H106.821C103.433 26.4336 100.685 23.6863 100.685 20.2972C100.685 16.9082 103.433 14.1609 106.821 14.1609Z" fill="url(#paint1_linear_331_1376)"/>
</g>
<defs>
<linearGradient id="paint0_linear_331_1376" x1="74.2013" y1="21.447" x2="185.027" y2="23.6953" gradientUnits="userSpaceOnUse">
<stop stop-color="#66FF00"/>
<stop offset="0.557292" stop-color="#16B862"/>
<stop offset="0.963542" stop-color="#00858F"/>
</linearGradient>
<linearGradient id="paint1_linear_331_1376" x1="74.9484" y1="24.4715" x2="179.642" y2="22.7923" gradientUnits="userSpaceOnUse">
<stop stop-color="#66FF00"/>
<stop offset="0.557292" stop-color="#16B862"/>
<stop offset="0.963542" stop-color="#00858F"/>
</linearGradient>
<clipPath id="clip0_331_1376">
<rect width="178.909" height="36" fill="white"/>
</clipPath>
</defs>
</svg>
